<?xml version="1.0" encoding="utf-8"?>
<!-- Svg Vector Icons : http://www.onlinewebfonts.com/icon -->
<!DOCTYPE svg PUBLIC "-//W3C//DTD SVG 1.1//EN" "http://www.w3.org/Graphics/SVG/1.1/DTD/svg11.dtd">
<svg version="1.1" xmlns="http://www.w3.org/2000/svg" xmlns:xlink="http://www.w3.org/1999/xlink" x="0px" y="0px" viewBox="0 0 1000 1000" enable-background="new 0 0 1000 1000" xml:space="preserve">
<metadata> Svg Vector Icons : http://www.onlinewebfonts.com/icon </metadata>
<g><g><path d="M500,743.6c32.5,0,61.1,12.4,86,37.3s37.3,53.5,37.3,86c0,32.5-12.4,61.1-37.3,86S532.5,990,500,990s-61.1-12.4-86-37.3s-37.3-53.5-37.3-86c0-32.5,12.4-61.1,37.3-86S467.5,743.6,500,743.6z M500,376.8c32.5,0,61.1,12.4,86,37.3s37.3,53.5,37.3,86s-12.4,61.1-37.3,86s-53.5,37.3-86,37.3s-61.1-12.4-86-37.3s-37.3-53.5-37.3-86s12.4-61.1,37.3-86S467.5,376.8,500,376.8z M500,256.4c-32.5,0-61.1-12.4-86-37.3c-24.8-24.8-37.3-53.5-37.3-86c0-32.5,12.4-61.1,37.3-86C438.9,22.4,467.5,10,500,10s61.1,12.4,86,37.3c24.8,24.8,37.3,53.5,37.3,86c0,32.5-12.4,61.1-37.3,86C561.1,244,532.5,256.4,500,256.4z"/></g></g>
</svg>